<?xml version="1.0" standalone="no"?>
<!DOCTYPE svg PUBLIC "-//W3C//DTD SVG 20010904//EN"
 "http://www.w3.org/TR/2001/REC-SVG-20010904/DTD/svg10.dtd">
<svg version="1.0" xmlns="http://www.w3.org/2000/svg"
 width="400.000000pt" height="400.000000pt" viewBox="0 0 400.000000 400.000000"
 preserveAspectRatio="xMidYMid meet">

<g transform="translate(0.000000,400.000000) scale(0.100000,-0.100000)"
fill="#000000" stroke="none">
<path d="M1363 2465 c-143 -39 -241 -131 -293 -272 -19 -53 -22 -77 -18 -156
3 -84 8 -103 40 -168 34 -67 64 -101 320 -357 l283 -282 398 398 c372 372 397
400 397 432 -1 57 -48 98 -98 85 -17 -4 -116 -95 -262 -240 -272 -271 -297
-288 -430 -289 -128 -1 -165 18 -307 157 -144 141 -173 188 -173 282 0 113 70
209 174 240 119 36 179 13 316 -121 l105 -103 -60 -61 -60 -60 -95 94 c-98 98
-132 117 -172 95 -34 -18 -47 -40 -48 -79 0 -30 12 -46 118 -151 92 -92 126
-120 157 -128 83 -22 97 -12 360 249 132 131 255 245 274 255 45 22 126 30
178 16 105 -28 183 -134 183 -245 -1 -110 -4 -114 -438 -548 l-397 -398 60
-60 60 -60 403 402 c374 374 406 408 440 477 36 73 37 78 37 186 0 108 -1 113
-38 187 -103 210 -346 293 -563 194 -42 -19 -87 -56 -164 -131 -58 -58 -110
-105 -115 -105 -5 0 -56 47 -114 104 -59 57 -124 113 -146 124 -102 51 -211
64 -312 37z"/>
</g>
</svg>