<svg xmlns="http://www.w3.org/2000/svg" xmlns:xlink="http://www.w3.org/1999/xlink" width="321" zoomAndPan="magnify" viewBox="0 0 240.75 141.750002" height="188" preserveAspectRatio="xMidYMid meet" version="1.0"><defs><g/><clipPath id="fda70b076b"><path d="M 0.0859375 0 L 240.414062 0 L 240.414062 141.5 L 0.0859375 141.5 Z M 0.0859375 0 " clip-rule="nonzero"/></clipPath></defs><g clip-path="url(#fda70b076b)"><path fill="#ffffff" d="M 0.0859375 0 L 240.414062 0 L 240.414062 141.5 L 0.0859375 141.5 Z M 0.0859375 0 " fill-opacity="1" fill-rule="nonzero"/><path fill="#ffffff" d="M 0.0859375 0 L 240.414062 0 L 240.414062 141.5 L 0.0859375 141.5 Z M 0.0859375 0 " fill-opacity="1" fill-rule="nonzero"/></g><path fill="#ff3131" d="M 34.410156 53.351562 C 31.925781 53.59375 29.777344 54.585938 28.074219 56.277344 C 26.78125 57.558594 25.851562 59.171875 25.386719 60.933594 C 25.144531 61.835938 25.082031 62.375 25.082031 63.539062 C 25.082031 64.457031 25.097656 64.699219 25.179688 65.171875 C 25.488281 66.96875 26.136719 68.453125 27.246094 69.894531 C 27.417969 70.125 30 72.742188 34.089844 76.835938 L 40.65625 83.40625 L 50.066406 73.992188 C 60.453125 63.597656 59.632812 64.460938 59.785156 63.730469 C 59.875 63.308594 59.8125 62.90625 59.601562 62.460938 C 59.421875 62.085938 59.21875 61.851562 58.882812 61.625 C 58.25 61.199219 57.4375 61.160156 56.730469 61.511719 C 56.535156 61.609375 55.582031 62.542969 51.023438 67.09375 C 45.070312 73.039062 45.371094 72.757812 44.386719 73.234375 C 43.246094 73.792969 42.261719 74.027344 40.933594 74.0625 C 39.433594 74.105469 38.289062 73.878906 37.050781 73.300781 C 36.015625 72.8125 36.132812 72.914062 33.425781 70.21875 C 32.066406 68.871094 30.832031 67.617188 30.6875 67.441406 C 30.039062 66.671875 29.613281 65.808594 29.386719 64.8125 C 29.277344 64.3125 29.25 63.066406 29.34375 62.535156 C 29.84375 59.714844 32.117188 57.695312 34.96875 57.546875 C 36.464844 57.464844 37.921875 57.9375 39.085938 58.882812 C 39.273438 59.03125 40.332031 60.0625 41.433594 61.164062 L 43.4375 63.171875 L 42.050781 64.5625 L 40.65625 65.953125 L 38.496094 63.789062 C 36.210938 61.515625 36.167969 61.480469 35.636719 61.335938 C 35.519531 61.304688 35.273438 61.277344 35.097656 61.277344 C 34.371094 61.277344 33.75 61.609375 33.351562 62.203125 C 33.109375 62.578125 33.015625 62.871094 33.011719 63.347656 C 33.007812 63.816406 33.113281 64.175781 33.34375 64.519531 C 33.421875 64.628906 34.589844 65.832031 35.949219 67.195312 L 38.414062 69.671875 L 38.898438 69.914062 C 39.574219 70.253906 39.933594 70.339844 40.636719 70.34375 C 41.085938 70.34375 41.269531 70.324219 41.558594 70.246094 C 41.945312 70.140625 42.34375 69.976562 42.617188 69.800781 C 42.714844 69.742188 42.804688 69.695312 42.820312 69.699219 C 42.839844 69.703125 45.292969 67.265625 48.273438 64.289062 C 53.921875 58.648438 53.917969 58.652344 54.707031 58.226562 C 56.363281 57.335938 58.507812 57.304688 60.203125 58.140625 C 61.886719 58.976562 63.050781 60.488281 63.441406 62.355469 C 63.503906 62.636719 63.519531 62.917969 63.519531 63.539062 C 63.519531 64.421875 63.472656 64.769531 63.253906 65.4375 C 63.042969 66.078125 62.777344 66.582031 62.34375 67.179688 C 62.1875 67.398438 58.964844 70.652344 52.773438 76.847656 L 43.4375 86.1875 L 44.925781 87.671875 L 46.410156 89.160156 L 55.851562 79.714844 C 64.1875 71.371094 65.34375 70.203125 65.6875 69.738281 C 66.730469 68.339844 67.328125 66.929688 67.644531 65.148438 C 67.769531 64.425781 67.78125 62.804688 67.660156 62.054688 C 66.921875 57.324219 63.261719 53.851562 58.519531 53.371094 C 57.761719 53.292969 57.339844 53.292969 56.582031 53.371094 C 54.574219 53.570312 52.800781 54.273438 51.214844 55.492188 C 51.011719 55.648438 49.859375 56.761719 48.652344 57.96875 C 47.441406 59.171875 46.433594 60.15625 46.410156 60.15625 C 46.390625 60.15625 45.390625 59.183594 44.191406 57.988281 C 42.992188 56.796875 41.851562 55.6875 41.648438 55.527344 C 40.34375 54.496094 38.832031 53.816406 37.058594 53.472656 C 36.335938 53.332031 35.164062 53.277344 34.410156 53.351562 Z M 34.410156 53.351562 " fill-opacity="1" fill-rule="nonzero"/><g fill="#000000" fill-opacity="1"><g transform="translate(72.926092, 77.479499)"><g><path d="M 13.53125 -9.265625 L 8.984375 -9.265625 C 8.898438 -9.734375 8.726562 -10.050781 8.46875 -10.21875 C 8.21875 -10.394531 7.796875 -10.484375 7.203125 -10.484375 C 6.296875 -10.484375 5.84375 -10.21875 5.84375 -9.6875 C 5.84375 -9.507812 5.914062 -9.351562 6.0625 -9.21875 C 6.195312 -9.0625 6.410156 -8.941406 6.703125 -8.859375 C 6.984375 -8.753906 7.226562 -8.6875 7.4375 -8.65625 C 7.632812 -8.601562 7.894531 -8.5625 8.21875 -8.53125 C 8.539062 -8.476562 8.710938 -8.453125 8.734375 -8.453125 C 9.335938 -8.328125 9.84375 -8.222656 10.25 -8.140625 C 10.632812 -8.046875 11.082031 -7.882812 11.59375 -7.65625 C 12.101562 -7.4375 12.507812 -7.191406 12.8125 -6.921875 C 13.113281 -6.648438 13.375 -6.289062 13.59375 -5.84375 C 13.800781 -5.382812 13.90625 -4.859375 13.90625 -4.265625 C 13.90625 -2.828125 13.320312 -1.703125 12.15625 -0.890625 C 10.988281 -0.078125 9.375 0.328125 7.3125 0.328125 C 3.132812 0.328125 0.914062 -1.234375 0.65625 -4.359375 L 5.40625 -4.359375 C 5.46875 -3.816406 5.660156 -3.429688 5.984375 -3.203125 C 6.285156 -2.941406 6.757812 -2.8125 7.40625 -2.8125 C 7.894531 -2.8125 8.285156 -2.90625 8.578125 -3.09375 C 8.847656 -3.28125 8.984375 -3.535156 8.984375 -3.859375 C 8.984375 -4.179688 8.847656 -4.410156 8.578125 -4.546875 C 8.304688 -4.679688 7.789062 -4.832031 7.03125 -5 C 6.769531 -5.050781 6.566406 -5.09375 6.421875 -5.125 C 4.691406 -5.5 3.539062 -5.828125 2.96875 -6.109375 C 1.613281 -6.773438 0.9375 -7.851562 0.9375 -9.34375 C 0.9375 -10.675781 1.488281 -11.695312 2.59375 -12.40625 C 3.675781 -13.113281 5.25 -13.46875 7.3125 -13.46875 C 9.082031 -13.46875 10.523438 -13.164062 11.640625 -12.5625 C 12.765625 -11.9375 13.394531 -10.835938 13.53125 -9.265625 Z M 13.53125 -9.265625 "/></g></g></g><g fill="#000000" fill-opacity="1"><g transform="translate(86.773081, 77.479499)"><g><path d="M 8.046875 -13.46875 C 10.160156 -13.46875 11.875 -12.835938 13.1875 -11.578125 C 14.507812 -10.304688 15.171875 -8.644531 15.171875 -6.59375 C 15.171875 -4.53125 14.503906 -2.847656 13.171875 -1.546875 C 11.835938 -0.265625 10.113281 0.375 8 0.375 C 5.863281 0.375 4.128906 -0.265625 2.796875 -1.546875 C 1.453125 -2.828125 0.78125 -4.492188 0.78125 -6.546875 C 0.78125 -8.585938 1.457031 -10.253906 2.8125 -11.546875 C 4.15625 -12.828125 5.898438 -13.46875 8.046875 -13.46875 Z M 7.9375 -9.84375 C 6.519531 -9.84375 5.8125 -8.742188 5.8125 -6.546875 C 5.8125 -4.328125 6.539062 -3.21875 8 -3.21875 C 9.4375 -3.21875 10.15625 -4.34375 10.15625 -6.59375 C 10.15625 -8.757812 9.414062 -9.84375 7.9375 -9.84375 Z M 7.9375 -9.84375 "/></g></g></g><g fill="#000000" fill-opacity="1"><g transform="translate(102.040317, 77.479499)"><g><path d="M 6.390625 -18.0625 L 6.390625 -13.171875 L 6.375 -11.703125 C 6.925781 -12.328125 7.484375 -12.773438 8.046875 -13.046875 C 8.617188 -13.296875 9.320312 -13.421875 10.15625 -13.421875 C 11.375 -13.421875 12.410156 -13.082031 13.265625 -12.40625 C 14.128906 -11.726562 14.738281 -10.898438 15.09375 -9.921875 C 15.46875 -8.921875 15.65625 -7.820312 15.65625 -6.625 C 15.65625 -4.539062 15.128906 -2.863281 14.078125 -1.59375 C 13.035156 -0.3125 11.660156 0.328125 9.953125 0.328125 C 8.335938 0.328125 7.09375 -0.253906 6.21875 -1.421875 L 6.21875 0 L 1.390625 0 L 1.390625 -18.0625 Z M 8.421875 -9.609375 C 7.734375 -9.609375 7.191406 -9.347656 6.796875 -8.828125 C 6.429688 -8.316406 6.25 -7.585938 6.25 -6.640625 C 6.25 -4.648438 6.984375 -3.65625 8.453125 -3.65625 C 9.890625 -3.65625 10.609375 -4.644531 10.609375 -6.625 C 10.609375 -7.550781 10.410156 -8.285156 10.015625 -8.828125 C 9.628906 -9.347656 9.097656 -9.609375 8.421875 -9.609375 Z M 8.421875 -9.609375 "/></g></g></g><g fill="#000000" fill-opacity="1"><g transform="translate(117.764053, 77.479499)"><g><path d="M 11.296875 -13.21875 L 11.296875 -8.828125 C 10.578125 -9.066406 9.957031 -9.1875 9.4375 -9.1875 C 8.425781 -9.1875 7.65625 -8.90625 7.125 -8.34375 C 6.582031 -7.769531 6.3125 -6.96875 6.3125 -5.9375 L 6.3125 0 L 1.3125 0 L 1.3125 -13.09375 L 6.109375 -13.09375 L 6.09375 -11.0625 C 6.5625 -11.875 7.101562 -12.472656 7.71875 -12.859375 C 8.320312 -13.253906 9.082031 -13.453125 10 -13.453125 C 10.40625 -13.453125 10.835938 -13.375 11.296875 -13.21875 Z M 11.296875 -13.21875 "/></g></g></g><g fill="#000000" fill-opacity="1"><g transform="translate(128.314048, 77.479499)"><g><path d="M 14.96875 -3.9375 C 14.582031 -2.550781 13.738281 -1.484375 12.4375 -0.734375 C 11.144531 0.00390625 9.734375 0.375 8.203125 0.375 C 6.066406 0.375 4.296875 -0.222656 2.890625 -1.421875 C 1.484375 -2.617188 0.78125 -4.273438 0.78125 -6.390625 C 0.78125 -8.441406 1.457031 -10.125 2.8125 -11.4375 C 4.1875 -12.757812 5.921875 -13.421875 8.015625 -13.421875 C 10.210938 -13.421875 11.960938 -12.738281 13.265625 -11.375 C 14.585938 -10 15.25 -8.15625 15.25 -5.84375 L 15.25 -5.453125 L 5.609375 -5.453125 C 5.640625 -4.628906 5.875 -3.988281 6.3125 -3.53125 C 6.769531 -3.070312 7.390625 -2.84375 8.171875 -2.84375 C 9.097656 -2.84375 9.800781 -3.207031 10.28125 -3.9375 Z M 10.359375 -7.96875 C 10.222656 -9.457031 9.453125 -10.203125 8.046875 -10.203125 C 6.691406 -10.203125 5.890625 -9.457031 5.640625 -7.96875 Z M 10.359375 -7.96875 "/></g></g></g><g fill="#000000" fill-opacity="1"><g transform="translate(143.581286, 77.479499)"><g><path d="M 14.84375 -5.25 C 14.601562 -3.488281 13.882812 -2.117188 12.6875 -1.140625 C 11.46875 -0.160156 9.90625 0.328125 8 0.328125 C 5.882812 0.328125 4.164062 -0.296875 2.84375 -1.546875 C 1.507812 -2.796875 0.84375 -4.425781 0.84375 -6.4375 C 0.84375 -8.519531 1.5 -10.207031 2.8125 -11.5 C 4.132812 -12.757812 5.867188 -13.390625 8.015625 -13.390625 C 9.910156 -13.390625 11.476562 -12.910156 12.71875 -11.953125 C 13.9375 -10.984375 14.613281 -9.710938 14.75 -8.140625 L 9.953125 -8.140625 C 9.878906 -8.671875 9.675781 -9.085938 9.34375 -9.390625 C 8.988281 -9.691406 8.5625 -9.84375 8.0625 -9.84375 C 6.59375 -9.84375 5.859375 -8.703125 5.859375 -6.421875 C 5.859375 -4.359375 6.585938 -3.328125 8.046875 -3.328125 C 9.179688 -3.328125 9.847656 -3.96875 10.046875 -5.25 Z M 14.84375 -5.25 "/></g></g></g><g fill="#000000" fill-opacity="1"><g transform="translate(158.366651, 77.479499)"><g><path d="M 15.078125 -13.09375 L 15.078125 0 L 10.203125 0 L 10.203125 -1.671875 C 9.335938 -0.304688 8 0.375 6.1875 0.375 C 3.007812 0.375 1.421875 -1.414062 1.421875 -5 L 1.421875 -13.09375 L 6.5 -13.09375 L 6.5 -5.5625 C 6.5 -4.375 7.066406 -3.78125 8.203125 -3.78125 C 8.960938 -3.78125 9.457031 -4.015625 9.6875 -4.484375 C 9.925781 -4.960938 10.046875 -5.613281 10.046875 -6.4375 L 10.046875 -13.09375 Z M 15.078125 -13.09375 "/></g></g></g><g fill="#000000" fill-opacity="1"><g transform="translate(174.09039, 77.479499)"><g><path d="M 6.21875 -13.09375 L 6.21875 -11.671875 C 7.113281 -12.835938 8.363281 -13.421875 9.96875 -13.421875 C 11.675781 -13.421875 13.046875 -12.78125 14.078125 -11.5 C 15.128906 -10.226562 15.65625 -8.539062 15.65625 -6.4375 C 15.65625 -4.375 15.15625 -2.734375 14.15625 -1.515625 C 13.15625 -0.285156 11.820312 0.328125 10.15625 0.328125 C 8.695312 0.328125 7.441406 -0.242188 6.390625 -1.390625 L 6.390625 4.21875 L 1.390625 4.21875 L 1.390625 -13.09375 Z M 8.421875 -9.421875 C 6.972656 -9.421875 6.25 -8.421875 6.25 -6.421875 C 6.25 -4.453125 6.984375 -3.46875 8.453125 -3.46875 C 9.898438 -3.46875 10.625 -4.457031 10.625 -6.4375 C 10.625 -8.425781 9.890625 -9.421875 8.421875 -9.421875 Z M 8.421875 -9.421875 "/></g></g></g><g fill="#000000" fill-opacity="1"><g transform="translate(189.814123, 77.479499)"><g><path d="M 8.046875 -13.46875 C 10.160156 -13.46875 11.875 -12.835938 13.1875 -11.578125 C 14.507812 -10.304688 15.171875 -8.644531 15.171875 -6.59375 C 15.171875 -4.53125 14.503906 -2.847656 13.171875 -1.546875 C 11.835938 -0.265625 10.113281 0.375 8 0.375 C 5.863281 0.375 4.128906 -0.265625 2.796875 -1.546875 C 1.453125 -2.828125 0.78125 -4.492188 0.78125 -6.546875 C 0.78125 -8.585938 1.457031 -10.253906 2.8125 -11.546875 C 4.15625 -12.828125 5.898438 -13.46875 8.046875 -13.46875 Z M 7.9375 -9.84375 C 6.519531 -9.84375 5.8125 -8.742188 5.8125 -6.546875 C 5.8125 -4.328125 6.539062 -3.21875 8 -3.21875 C 9.4375 -3.21875 10.15625 -4.34375 10.15625 -6.59375 C 10.15625 -8.757812 9.414062 -9.84375 7.9375 -9.84375 Z M 7.9375 -9.84375 "/></g></g></g><g fill="#000000" fill-opacity="1"><g transform="translate(205.081355, 77.479499)"><g><path d="M 13.53125 -9.265625 L 8.984375 -9.265625 C 8.898438 -9.734375 8.726562 -10.050781 8.46875 -10.21875 C 8.21875 -10.394531 7.796875 -10.484375 7.203125 -10.484375 C 6.296875 -10.484375 5.84375 -10.21875 5.84375 -9.6875 C 5.84375 -9.507812 5.914062 -9.351562 6.0625 -9.21875 C 6.195312 -9.0625 6.410156 -8.941406 6.703125 -8.859375 C 6.984375 -8.753906 7.226562 -8.6875 7.4375 -8.65625 C 7.632812 -8.601562 7.894531 -8.5625 8.21875 -8.53125 C 8.539062 -8.476562 8.710938 -8.453125 8.734375 -8.453125 C 9.335938 -8.328125 9.84375 -8.222656 10.25 -8.140625 C 10.632812 -8.046875 11.082031 -7.882812 11.59375 -7.65625 C 12.101562 -7.4375 12.507812 -7.191406 12.8125 -6.921875 C 13.113281 -6.648438 13.375 -6.289062 13.59375 -5.84375 C 13.800781 -5.382812 13.90625 -4.859375 13.90625 -4.265625 C 13.90625 -2.828125 13.320312 -1.703125 12.15625 -0.890625 C 10.988281 -0.078125 9.375 0.328125 7.3125 0.328125 C 3.132812 0.328125 0.914062 -1.234375 0.65625 -4.359375 L 5.40625 -4.359375 C 5.46875 -3.816406 5.660156 -3.429688 5.984375 -3.203125 C 6.285156 -2.941406 6.757812 -2.8125 7.40625 -2.8125 C 7.894531 -2.8125 8.285156 -2.90625 8.578125 -3.09375 C 8.847656 -3.28125 8.984375 -3.535156 8.984375 -3.859375 C 8.984375 -4.179688 8.847656 -4.410156 8.578125 -4.546875 C 8.304688 -4.679688 7.789062 -4.832031 7.03125 -5 C 6.769531 -5.050781 6.566406 -5.09375 6.421875 -5.125 C 4.691406 -5.5 3.539062 -5.828125 2.96875 -6.109375 C 1.613281 -6.773438 0.9375 -7.851562 0.9375 -9.34375 C 0.9375 -10.675781 1.488281 -11.695312 2.59375 -12.40625 C 3.675781 -13.113281 5.25 -13.46875 7.3125 -13.46875 C 9.082031 -13.46875 10.523438 -13.164062 11.640625 -12.5625 C 12.765625 -11.9375 13.394531 -10.835938 13.53125 -9.265625 Z M 13.53125 -9.265625 "/></g></g></g><g fill="#5271ff" fill-opacity="1"><g transform="translate(218.930304, 77.479499)"><g/></g></g></svg>