<?xml version="1.0" standalone="no"?>
<!DOCTYPE svg PUBLIC "-//W3C//DTD SVG 20010904//EN"
 "http://www.w3.org/TR/2001/REC-SVG-20010904/DTD/svg10.dtd">
<svg version="1.0" xmlns="http://www.w3.org/2000/svg"
 width="1063.000000pt" height="1063.000000pt" viewBox="0 0 1063.000000 1063.000000"
 preserveAspectRatio="xMidYMid meet">

<g transform="translate(0.000000,1063.000000) scale(0.100000,-0.100000)"
fill="#ef4444" stroke="none">
<path d="M2954 8565 c-199 -29 -427 -101 -602 -189 -518 -261 -897 -765 -1014
-1349 -20 -98 -22 -144 -23 -362 0 -226 2 -261 24 -360 63 -293 169 -541 324
-756 87 -122 153 -189 1430 -1467 l1142 -1144 1638 1644 c1677 1682 1894 1903
1930 1973 17 33 21 59 21 140 1 92 -1 105 -30 165 -59 121 -133 182 -265 216
-114 29 -230 6 -319 -65 -25 -20 -477 -466 -1005 -991 -528 -525 -1003 -991
-1057 -1035 -155 -129 -365 -226 -594 -272 -129 -26 -533 -26 -651 0 -173 38
-381 122 -508 205 -100 65 -1043 1008 -1107 1107 -117 180 -175 347 -188 535
-15 242 16 423 104 601 60 120 109 191 191 278 217 230 502 353 820 354 249 1
445 -59 658 -200 50 -33 196 -171 480 -453 l408 -405 -263 -262 -263 -262
-315 313 c-544 540 -561 554 -699 564 -168 12 -313 -74 -389 -228 -24 -49 -27
-66 -27 -160 0 -173 -21 -145 534 -703 465 -468 478 -480 561 -522 113 -57
176 -75 290 -82 129 -8 236 14 360 74 l95 46 985 981 c542 540 1027 1016 1078
1059 134 111 283 183 467 223 109 23 349 23 460 -1 419 -89 732 -380 862 -800
26 -87 27 -97 27 -310 0 -211 -1 -224 -27 -309 -15 -49 -43 -123 -62 -164 -88
-189 -21 -118 -1912 -2012 l-1762 -1766 277 -277 277 -277 1646 1648 c905 906
1715 1720 1801 1809 290 301 442 584 524 978 25 120 28 149 28 370 1 229 0
246 -28 370 -104 471 -328 843 -677 1124 -277 224 -623 369 -981 411 -160 19
-439 8 -595 -24 -301 -61 -593 -194 -810 -369 -42 -34 -230 -212 -417 -396
-188 -184 -375 -368 -417 -409 l-77 -74 -432 426 c-437 431 -494 481 -684 596
-184 112 -507 222 -736 250 -114 14 -394 11 -506 -5z"/>
</g>
</svg>
